<mxfile host="app.diagrams.net" agent="Mozilla/5.0 (X11; Linux x86_64) AppleWebKit/537.36 (KHTML, like Gecko) Chrome/133.0.0.0 Safari/537.36" version="26.1.3">
  <diagram name="Page-1" id="GNavabY9yPtwmJ5e5JHx">
    <mxGraphModel dx="1574" dy="1423" grid="1" gridSize="10" guides="1" tooltips="1" connect="1" arrows="1" fold="1" page="1" pageScale="1" pageWidth="850" pageHeight="1100" math="0" shadow="0">
      <root>
        <mxCell id="0" />
        <mxCell id="ULsuLPqDYhj-CrE27u8X-21" value="Untitled Layer" parent="0" />
        <mxCell id="ULsuLPqDYhj-CrE27u8X-22" value="" style="rounded=0;whiteSpace=wrap;html=1;fillColor=#647687;strokeColor=#314354;fontColor=#ffffff;" vertex="1" parent="ULsuLPqDYhj-CrE27u8X-21">
          <mxGeometry x="210" y="-90" width="360" height="510" as="geometry" />
        </mxCell>
        <mxCell id="ULsuLPqDYhj-CrE27u8X-23" value="" style="rounded=0;whiteSpace=wrap;html=1;fillColor=#647687;strokeColor=#314354;fontColor=#ffffff;" vertex="1" parent="ULsuLPqDYhj-CrE27u8X-21">
          <mxGeometry x="-220" y="-20" width="360" height="360" as="geometry" />
        </mxCell>
        <mxCell id="ULsuLPqDYhj-CrE27u8X-24" value="" style="ellipse;whiteSpace=wrap;html=1;aspect=fixed;strokeColor=none;fillColor=#3399FF;" vertex="1" parent="ULsuLPqDYhj-CrE27u8X-21">
          <mxGeometry x="-190" y="15" width="300" height="300" as="geometry" />
        </mxCell>
        <mxCell id="1" parent="0" />
        <mxCell id="ULsuLPqDYhj-CrE27u8X-9" value="" style="ellipse;whiteSpace=wrap;html=1;aspect=fixed;strokeColor=none;" vertex="1" parent="1">
          <mxGeometry x="240" y="12.5" width="300" height="300" as="geometry" />
        </mxCell>
        <mxCell id="ULsuLPqDYhj-CrE27u8X-10" value="" style="endArrow=none;html=1;rounded=0;exitX=0;exitY=0.5;exitDx=0;exitDy=0;entryX=1;entryY=0.5;entryDx=0;entryDy=0;strokeColor=default;dashed=1;" edge="1" parent="1" source="ULsuLPqDYhj-CrE27u8X-9" target="ULsuLPqDYhj-CrE27u8X-9">
          <mxGeometry width="50" height="50" relative="1" as="geometry">
            <mxPoint x="90" y="130" as="sourcePoint" />
            <mxPoint x="140" y="80" as="targetPoint" />
          </mxGeometry>
        </mxCell>
        <mxCell id="ULsuLPqDYhj-CrE27u8X-11" value="Untitled Layer" parent="0" />
        <mxCell id="ULsuLPqDYhj-CrE27u8X-12" value="&lt;pre&gt;&lt;font face=&quot;Tektur&quot; data-font-src=&quot;https://fonts.googleapis.com/css?family=Tektur&quot; style=&quot;font-size: 54px; color: rgb(77, 153, 0);&quot;&gt;Nasturtium&lt;/font&gt;&lt;/pre&gt;" style="text;html=1;align=center;verticalAlign=middle;whiteSpace=wrap;rounded=0;fontFamily=Lobster;fontSource=https%3A%2F%2Ffonts.googleapis.com%2Fcss%3Ffamily%3DLobster;" vertex="1" parent="ULsuLPqDYhj-CrE27u8X-11">
          <mxGeometry x="275" y="120" width="230" height="40" as="geometry" />
        </mxCell>
        <mxCell id="ULsuLPqDYhj-CrE27u8X-13" value="&lt;font data-font-src=&quot;https://fonts.googleapis.com/css?family=Shadows+Into+Light&quot; face=&quot;Shadows Into Light&quot; style=&quot;font-size: 53px; color: rgb(255, 0, 0);&quot;&gt;&lt;span style=&quot;line-height: 100%;&quot;&gt;parazites&lt;/span&gt;&lt;/font&gt;" style="text;html=1;align=center;verticalAlign=middle;whiteSpace=wrap;rounded=0;" vertex="1" parent="ULsuLPqDYhj-CrE27u8X-11">
          <mxGeometry x="270" y="170" width="240" height="20" as="geometry" />
        </mxCell>
        <mxCell id="ULsuLPqDYhj-CrE27u8X-14" value="&lt;b&gt;&lt;font style=&quot;color: rgb(153, 153, 153); font-size: 36px;&quot; data-font-src=&quot;https://fonts.googleapis.com/css?family=Big+Shoulders+Stencil&quot; face=&quot;Big Shoulders Stencil&quot;&gt;vs&lt;/font&gt;&lt;/b&gt;" style="text;html=1;align=center;verticalAlign=middle;whiteSpace=wrap;rounded=1;fontSize=28;textShadow=1;fillColor=#fff2cc;strokeColor=none;opacity=80;" vertex="1" parent="ULsuLPqDYhj-CrE27u8X-11">
          <mxGeometry x="362.5" y="145" width="55" height="35" as="geometry" />
        </mxCell>
        <mxCell id="ULsuLPqDYhj-CrE27u8X-15" value="" style="shape=image;verticalLabelPosition=bottom;labelBackgroundColor=default;verticalAlign=top;aspect=fixed;imageAspect=0;image=data:image/png,iVBORw0KGgoAAAANSUhEUgAAAdgAAAHYCAYAAADu2fmZAAAABHNCSVQICAgIfAhkiAAAIABJREFUeF7tnQm8HUWZtysJCQQCSYAEEiCQEPZ9kU3ZEUFRQRZ1XGYGdcbR0U/RYdBBRGRmFHFBB9QZdEZEGUEGRJFFQBZlRyBAgBAIhCUbCQnZt5vv/97ck5x7lntPn6o+Xd391O9Xyb3dXVXv+1Td8z9VXYtzBAhAAAIQgAAEIAABCEAAAhCAAAQgAAEIQAACEIAABCAAAQhAAAIQgAAEIAABCEAAAhCAAAQgAAEIQAACEIAABCAAAQhAAAIQgAAEIAABCEAAAhCAAAQgAAEIQAACEIAABCAAAQhAAAIQgAAEIAABCEAAAhCAAAQgAAEIQAACEIAABCAAAQhAAAIQgAAEIAABCEAAAhCAAAQgAAEIQAACEIAABCAAAQhAAAIQgAAEIAABCEAAAhCAAAQgAAEIQAACEIAABCAAAQhAAAIQgAAEIAABCEAAAhCAAAQgAAEIQAACEIAABCAAAQhAAAIQgAAEIAABCEAAAhCAAAQgAAEIQAACEIAABCAAAQhAAAIQgAAEIAABCEAAAhCAAAQgAAEIQAACEIAABCAAAQhAAAIQgAAEIAABCEAAAhCAAAQgAAEIQAACEIAABCAAAQhAAAIQgAAEIAABCEAAAhCAAAQgAAEIQAACEIAABCAAAQhAAAIQgAAEIAABCEAAAhCAAAQgAAEIQAACEIAABCAAAQhAAAIQgAAEIAABCEAAAhCAAAQgAAEIQAACEIAABCAAAQhAAAIQgAAEIAABCEAAAhCAAAQgAAEIQAACEIAABCAAAQhAAAIQgAAEIAABCEAAAhCAAAQgAAEIQAACEIAABCAAAQhAAAIQgAAEIAABCEAAAhCAAAQgAAEIQAACEIAABCAAAQhAAAIQgAAEIAABCEAAAhCAAAQgAAEIQAACEIAABCAAAQhAAAIQgAAEIAABCEAAAhCAAAQgAAEIQAACEIAABCAAAQhAAAIQgAAEIAABCEAAAhCAAAQgAAEIQAACEIAABCAAAQhAAAIQgAAEIAABCEAAAhCAAAQgAAEIQAACEIAABCAAAQhAAAIQgAAEIAABCEAAAhCAAAQgAAEIQAACEIAABCAAAQhAAAIQgAAEIAABCEAAAhCAAAQgAAEIQAACEIAABCAAAQhAAAIQgAAEIAABCEAAAhCAAAQgAAEIQAACEIAABCAAAQhAAAIQgAAEIAABCEAAAhCAAAQgAAEIQAACEIAABCAAAQhAAAIQgAAEIAABCEAAAhCAAAQgAAEIQAACEIAABCAAAQhAAAIQgAAEIAABCEAAAhCAAAQgAAEIQAACEIAABCAAAQhAAAIQgAAEIAABCEAAAhCAAAQgAAEIQAACEIAABCAAAQhAAAIQgAAEIAABCEAAAhCAAAQgAAEIQAACEIAABCAAAQhAAAIQgAAEIAABCEAAAhCAAAQgAAEIQAACEIAABCAAAQhAAAIQgAAEIAABCEAAAhCAAAQgAAEIQAACEIAABCAAAQhAAAIQgAAEIAABCEAAAhCAAAQgAAEIQAACEIAABCAAAQhAAAIQgAAEIAABCEAAAhCAAAQgAAEIQAACEIAABCAAAQhAAAIQgAAEIAABCEAAAhCAAAQgAAEIQAACEIAABCAAAQhAAAIQgAAEIAABCEAAAhCAAAQgAAEIQAACEIAABCAAAQhAAAIQgAAEIAABCEAAAhCAAAQgAAEIQAACEIAABCAAAQhAAAIQgAAEIAABCEAAAhCAAAQgAAEIQAACEIAABCAAAQhAAAIQgAAEIAABCEAAAhCAAAQgAAEIQAACEIAABCAAAQhAAAIQgAAEIAABCEAAAhCAAAQgAAEIQAACEIAABCAAAQhAAAIQgAAEIAABCEAAAhCAAAQgAAEIQAACEIAABCAAAQhAAAIQgAAEIAABCEAAAhCAAAQgAAEIQAACEIAABCAAAQhAAAIQgAAEIAABCEAAAhCAAAQgAAEIQAACEIAABCAAAQhAAAIQgAAEIAABCEAAAhCAAAQgAAEIQAACEIAABCAAAQhAAAIQgAAEIAABCEAAAhCAAAQgAAEIQAACEIAABCAAAQhAAAIQgAAEIAABCEAAAhCAAAQgAAEIQAACEIAABCAAAQhAAAIQgAAEIAABCEAAAhCAAAQgAAEIQAACEIAABCAAAQhAAAIQgAAEIAABCEAAAhCAAAQgAAEIQAACEIAABCAAAQhAAAIQgAAEIAABCEAAAhCAAAQgAAEIQAACEIAABCAAAQhAAAIQgAAEIAABCEAAAhCAAAQgAAEIQAACEIAABCAAAQhAAAIQgAAEIAABCEAAAhCAAAQgAAEIQAACEIAABCAAAQhAAAIQgAAEIAABCEAAAhCAAAQgAAEIQAACEIAABCCQfwID8u8CHkCgcwTWrFmzj0r7s+ImiksV3+gjzuu5Z/+/qjjL4oABA9bofwIEIFBwAghswSsY98ISkMAOVo4rPHJdpbQmtCa4MxVfq/r/Jf38vOJ0ifBKjzJICgEIREAAgY2gEjAhXwQksstk8YYpWm0iPF3xBUUT3Mr/9vMzEl8rnwABCEROAIGNvIIwLz4CEtg3ZdWmGVm2WuU+p/hETXyBoeeMaoRiIdCEAALbBAyXIdCIgMR1oK6byMUWFsmgJxUfUrxf8V4J7ouxGYk9ECgTAQS2TLWNr94EJLATlIkN1eYh2DteE9v7euLDEl2bmEWAAAQ6QACB7QBkiigOAQnsz+TNR3Pqkb27/ZPibT3xLwwr57QmMTsXBBDYXFQTRsZAQOK6peywGcA2TFyEYDOYb+2JN0tsbckRAQIQCEQAgQ0EkmyKTaDn3avN5t2+oJ7ae2UbTr5G8ZcS2zkF9RO3INAxAghsx1BTUF4JSFw3kO3PKO6YVx8S2m3rfK1ne7XibyS2NmuaAAEIJCSAwCYExuPlIiBxfYs8tklCg8rl+Tpv7b3tbxUvkdDaDlYECECgRQIIbIugeKw8BCSq9nexn+IvFXcpj+f9evqInvhP4yKxtWVBBAhAoA8CCGwfcLhVLgIS1qHy+L2K5ysirM2rf4FuXab4Xd7VNofEHQggsLSBUhOQqNqOTMconqV4RKlhJHd+sZL8RPEiCa3trUyAAASqCCCwNIfSEOgZ+rWe6QcU36m4leJ2ivwd+LUCe0/7U8ULJbQz/LIiNQSKQ4APluLUJZ40IdDTS71Yt89QHNHkMS77E7AerXH+hoSWAwn8eZJDzgkgsDmvQMzvm4DE9Sg9cbtiUTaH6NvhOO5OlRlflsjamloCBEpLAIEtbdUX33GJq+0b/LDiyOJ7G6WHv5dVf8f72SjrBqM6QACB7QBkiug8AYnrDir1QcVRqZXepTPR33zJuUUvO7dEc3wWa2/9pdpJcZk2QVquXQdXzlXU/6u0T0OXJt6uWbLWlAEbqz893LkNNnNusLR/8BY6XVb/byRTh+q18CZbO7fxNs4N0+vhzbRx1EA74z23wWYcny2RteU9BAiUigACW6rqLoezElebuGRnpoY7FH2FdGKujmCd+5Rz859W1M9v3tEZoJtpkvOIvRR3c26LPRT18xAJdL6CDRf/g4RW3zoIECgHAQS2HPVcGi8lrrat4b2KtgNT+8EEdeYDzs1WJ3i2spt/U/t5pZFyxInOjT5M8SDntj44L4Krrr47RSJrG1YQIFB4Aghs4au4XA5KYG0W6xfa8nq+5ua8epdzMzQnavZVbWWRWaLRH3RuzLHObXOkeroTMzOjhYJtdvHfS2SvaOFZHoFArgkgsLmuPoyvJiBx/bp+PzcRlYV6h/rSzc69rPk4b9yQKGm0D498j1b3apnv9ic4t2m0h/98X/w+L6HtipYjhkHAkwAC6wmQ5HEQkLh+TpZ8t2VrpklMp/2fhoF/1nKSXD649V87N/59ihLd+MKvZNKHJbKr4jMNiyDgTwCB9WdIDhkTkLhq5o/7i+KQPk1Z9IpzUzXX5vnLNct3cp+PFu7mhrvrsL2POzfxdM1O3jYm934nY06TyC6PyShsgUAIAghsCIrkkRkBieuWKtwmNe3U1Ii5Tzo35Ur1WL/Z9JFS3Rj/z87t/GHNRt4zFrdtBtn7JLLs/hRLjWBHEAIIbBCMZJIFAYnrzirXPpxtQ4n68PokHZOuLXKnX1J/jyvOjft/zu16pnNb7h0DDevJniyRXR2DMdgAgRAEENgQFMmj4wQkrnasnF6iNtgC0WYDT/6xcy/ahGJCvwR2+KJzu/99DLOP/0sC+3f92ssDEMgJAQQ2JxWFmesJSFy1ANTdpWhrXteHlQude+KH6rVqCJSQnMCuGkLf6x+0s5Sd4JdZ+KJE9tuZlU7BEAhIAIENCJOs0icgcdU+gu4hxd4zdaZe7dzjWqWzXO9bCe0T2FDvZff5iiZD2cFDmQRbtmPvY3+TSekUCoGABBDYgDDJKl0CEldt0OtuVdSU2J4wT7OBH7uo+Mtt0kVbn7st79n3bOc2X4+6/qHUrsxXzvtKZF9KrQQyhkAHCCCwHYBMEf4EJK4nKZdfKGqH/J7wpN6zTvqkf+bk0JzA3j9ybk+9n+18+JOKPIpJT50HT4nhCHBGZjiW5JQSAYnrWcr6t4prxdUmMd3+UcQ1Jd69srUvMMbamHc2vE3FaayaAIH8EqAHm9+6K4XlEtd3yNEbFQd1O/z8r3UInZaWrNGEJkLnCAzQxKeDtORpx9M6V6YO+lNhb1Ev9rFOFkpZEAhFAIENRZJ8ghPoWed6vzLWYakKD52vQ+i+Frwc7wxt0m131J/TsDU601UDQ0M1V8f2lbID82yu80BdG9iz7W6Xfu7SzyYftn/RCsWlurZU1xYpj4XKY6F+X9jzvG5HE3b6qiTv/E6ao+OM3KES2QhhdBIDZeWRAAKbx1orgc09s4XvkasTnW3If78m3MzRTOGsw8b6kxkl8dtS+yFsLmNM+nsvFgpnoQmwzmt38xRfVwd+jjRmicQ36zBKM4wP0cSyzh0k8HEJ7E+ydpvyIZCUAAKblBjPp05A4mpTV2228DZuhua63Ku1mVkuvxkjS8YqbqU/lxEZC9x82TBLNrwme2akXhXNC7DlPIdpzfEYe1WaerBD2idKZG12MQECuSGAwOamqsphqMT1AHlq61wHdL9vfUCb02cRTFDHqWtqq22HWFcywrBC9r0iu6bLPhPcLMLBOjyhM+9lvy6BPS8LFykTAu0SQGDbJUe64AQkrjZL+AnFcS6LJThW+niLg53beGVw/1LNcIlsniabp6mUN1MtqT7zzizlWaSCJ0hk59QbwBUIxEkAgY2zXkpplQTW3rOd6R7VHsJP/1PnGNgQsJ3FY73VIgTr1T6n2Mkh5N2+5dx+2tM43fANCeyX0i2C3CEQjgACG44lOXkQkLh+VMl/5h6+UEfLdWj54ziVaOfxjPYwPOak1td7VnF6h4zcWVtVHnhumoVZL3Y73sWmiZi8QxJAYEPSJK+2CEhc7UXrlVqGM6Qjy3Ds/apNoyqqsNbWggntU4qdeE+b/jKesySw3611kd8hECMBBDbGWimRTRLXD8rdX3ak5zpSzX0vzcAtylBw0nZiQ8dPiMEbKc+ETrcn+6K8sBnFnBubtP55vuMEENiOI6fACgGJ68n6+Vq9cx2Y+jvXfVTSHrDvJmC92cdTZpHuO9l3S2DtgHYCBKImgMBGXT3FNE7Cau3u04rf02zhQalu2G/DwfspDi8my7a9WqCUjyqmOWyc3uzi6ySw72vbdxJCoEMEENgOgaaYtQR6xPVm/XZ86utcbUXtLpDvk4BNgnqkzyf8bqazTtY2lxwrkbUNKAgQiJaA9nwjQKCjBH6l0o7v3qEprU0kbAvDd+i7I+Laf8UaI2NlzNIIVsdW12GD7fJMDzYsU3JLgQACmwJUsmxMQL3X9+rO6d17C9v2h2mEHdWkT1DGW6Q8kScN27PK01gZM2OXRrC6tjoPGz4UNjtyg0B4Ain9RYU3lBzzTaBnQtP13V7Yxv1p7C28n5rzwRy60nZLMXbGMHSwurY6DxsOV5sqy0KrsOTIrWMEUvhr6pjtFJQDAvoQHKr4fzL1um5z7ci50Kfi2EyCt6kp74a4ejcJY2gsQ8/OsDq3ug8X7LPL+t0ECERLIPSfUbSOYljnCEhQbXrRvopnKh62ruQ0Nu/fSLnbgS70ZcJWsG1OYYcFLgubrQs76ekaTXTS2XkECMRJAIGNs15ya1WPuD5c58D8qc7dtL9zaxbW3Wr7gh1yfriacNZHyLXtQOQJ7Wi8e/R+NmCVuQGqtBP/ojqbGMJ5O9ZglETWZhUTIBAdAYaIo6uS/BokcdWp4O63DT145IKw4mon3xyt5ou4NsQd5KKxNcbGOlSwL1jWFsIEs+wtYbIiFwiEJ4DAhmdayhwlrjYacqOinU3TO9jRc7N+Xnu1/d+t53qUmu4w3rm2D7HFlMbYWBvzUMHagrWJMOGoMNmQCwTCE0BgwzMtXY4SV/v4vUvxHXXOz5vsgu7UZO9cbVgYca1DndoFY23MjX2oMOmTzlnb8A9H+mdBDhBIhwACmw7XUuQqYR2rqDPKujfcO7yh049d1PByWxetj2wTmhgWbgufVyJjbjUcctZGmLbxVrVB23iCUGACquPtFfdXPELxOMVjFTeI3eWQfy6x+4p9AQmocdt2h/U91uoypmppxoPvD1eqLR8Zx7BwOKBt5DRddfCngHVwkDb2mug9EfggTXR6qA1vSJIDAvqs2VBmVs9ntwZ4mup87dK/iH2gBxtx5cRqmhr8JrKtb3Fdqcksj1vnNlCwDRAQ10AwPbKxOgi5GYW1EWsrfuEgv+SkjpxA9QiFHVN4Zh7E1ZgisJG3rEjNs4HavsMTPwy3W5Nt4ccmEn3z7uRdq4tQ2yraLk/WVvwCAuvHL/bUlX1Pp8jQt0hcfxa7wRX7ENi81FRcdv5tn+bYmtdn/rnPR1q+aZvQs/1hy7g69qDVSagDAqytWJtpPxzcflJS5oDAKtloa53PkbjaIYu5CQhsbqoqDkM1PGxtxg5Kbx4mB1uCYd9Xm5fDnWwJhKwbvzazU89ri2x5UHpaBGx9/XvyMixcDQGBTatJFDdfO8LcJh00Dq9Pcu7FixvfS3rVNlzkVJyk1Dr3vNWN1VGIYG3G2k57wT7Hdm8vKalyQKBL4npLDuysMxGBrUPChX4IHNLn/Wd+2uftlm+ajHOea8u4MnvQ6sjqKkTwazt7hTCBPOIjIHFdGp9VrVmEwLbGiafWE9AJ2k3CXE1YmX5Jk5sJL++X8Hkez45AqLqytmNtqL2wZ3vJSAWB9AggsOmxLVzOes9lOzbZoemNw5QrG19PenUfJRieNBHPZ0bA6srqLERovw3Rgw3BnzyCEkBgg+IsfGb/Ig8bv39d9Ipz077pD2CkJjXt4Z8NOXSYgNWZ1Z1vsDZkbSl5QGCTMyNFygSi32oqZf/JvkUCPbOH/7Hp41OvaXor0Y29KkveEqWK5+EZWhP/uDr6T0tspmp1wXTFV7XCYIb+f73HzC31/xj96W2jZ8fp/4mKu8nvfbThwpgcn7xmdXd3gKqwtrTv55NmtJXaqB1dZyfZEiAQBYEAXzmj8AMjUiZgH14qYnbTYq5VF2a55+btNlnmqKYlxHvjYZ2adptE8jbt5nb7Ej87j93YueO0q/5xEuQD7bjTnIU7Za/tTO0TNtSE4FOfaieHYySwf2wnIWkgkAYBhojToFrMPJtPZZl2g7+4GrM8LbRYpO+mP1FX9DgJ4lskhF+a5y+uxsAE2vKyPC1vK8PKyksIMbxvX9SsTSUPTHRKzowUKRJAYFOEW7CsT2vqz7T/a3qr5Rvj9OTolp/O7kETu+9K9HbS/x/XmK9vj7UvTyxvK8PKsjLzILQ2zmF16Rvaa1Ms7PLlTvqgBBDYoDgLndmhDb1b+JJzM3/W8Faiizsnejqbh6/U3oAHDnbuLInezIAnyvTnjZVlZVrZZkPsIURdWpuytpUs7JrscZ6GQLoEENh0+RYi954JTo0HcF+yU+s8wxilj7n3+qwOD/qI1qJ8REO3z2Y4CcnKNhvMFrMp1mB1aXXqG5K3LXqwvsxJH5QAAhsUZ2EzU9epyclLL//e3+md/LNILYdrtnBuT20kc+WC1IpInLHZYjaZbbGGEHWavG1toy+Dw2JFgl3lI4DAlq/O2/F4RMNEdgLKG21NRlmfnSbgum0b5p79xW9oOPaMuc6t6uBwcKtem01mm9kYY7A6tbr1Cda2kp2yY7PBQgxQ+1hNWgisI4DA0hhaIbB1w4devavh5UQXxyd6unMPf0HDsDabN/ZgNpqtMYYQdZu8jTFMHGNbKKlNCGxJKz6h2wc2fH7G7Q0vJ7o43kafIwufVof9OxENCfeHx2w1m2MLIeo2eRtDYGNrByW2B4EtceUncP3oumdX6EN99lV1lxNdsI0lNl6ZKEnqD1tv8LL5qRcTvACzObaerNWt70k71sasrbUemEncOiueTJkAApsy4IJkv3edHzMfqLuU+IJtExhTsPeZeeq51rIz22N7JxuijpO1NXqwte2C3zMjgMBmhj4fBWtWpk0cqd+fZ/aD/g7ENLnJZuTm4Z1rf9TNh5hmF4eo42RtbeeeZWX9keI+BFIngMCmjjj3BVg3s76dzL7XzzFbJzlE++3GEGxN6V+9EYMlYWwwX2JZJ2t17LsmNllb0/6S0c5LD1O/5JIbAvUfnLkxHUM7RKB+HNfeic2/ya9433dzfqX3Tn2hXIxxKU67Ppov5lMswbeura0lew/LMHEsdV9yOxDYkjeAFtyvn+Y794kWkvXzyFY28hxBsK0HY9pEIhQS8ymWbRVD1HWyNofAhmpH5ONFAIH1wleKxPVtZG5bR4mth7WxxHVEBOe+2ub5Fy4qbiWabzEcEGB1bXXuE5K1OQTWhzVpgxGo//AMljUZFYRA/TZG85/2c21UJM3uvzSxKcu9hf0o9p/afDMfYwi+dZ6szbFUJ4Y6x4YGk1eAAoHeBOo3vJvvOUS85ersGVvP7qIc7NTkS8p8jKEX61vnydocPVjfdkP6IAQi6UoE8YVM0iGwT69su7R5wJt3+JUUw/a5v1LPrpNHzvkRaz+1+Wi+Zh1869zanLW91sK2bPrfGiieSpcAApsu3yLk/vZeTrz5kr9PI/2z8M7hKh1mXpYQg68h6rz1tmcvfHt/MSxLXeNnVAQQ2KiqI0pjtull1aKX/YzcVMmzXkHysEa9by+RwJqv5nOWwerc6t4nJGt7+/kURVoIhCCAwIagWOw8dPBoVVjyqp+3vh+yfqWvTX1b1gofwomEecTgs2/dJ2t7CGzCJsLj4QkgsOGZFi3HrXo5tHimn3+bei7X8Ct9berbloXIJV95xOCzb90na3sIbL5aaCGtRWALWa1BnXpLr9yWzvLLfFjG619nDCnX8HCltmyY2HzPMvjWfbK2t4cmOm2YpbuUDQEEljbQlIA+oIbqZu/pKcvmNH2+pRtDM25yj/uOU7bkZZwPZe27b90na3v2baL+kIo4awarCkog40+7glItjlv127Qv99wUf2j9vhUdxfV0BEPUHXW4qrCsffet++Rtj2HirNoa5XYTQGBpCH0R2L3u5sq5dZcSXch4lNJNjeQEn0TQAj2cte++dZ+87SGwgZoO2bRHAIFtj1tZUh1Q5+hKzx5s1m/FppdYYLP23bfuk7e9A+vaLxcg0EECCGwHYeewqPr9d1a96edG1itkXtX+vGUNWfvuW/fJ297+mkegw34JEMiGAAKbDfe8lFo/o6lrgZ/tAzNucjNK3IPN2nffuk/e9uyoxYP9GiypIdA+gYw/7do3nJQdIfBoXSlrPHdAGpjxJKfX6zwqz4Wsffet+/ba3uHlqWA8jY0AAhtbjcRlzzNxmYM1EEhM4IjEKUgAgUAEENhAIAuaTf2U4QEb+7nalXGT29LP/Fynztp337pvr+29lZN1ct1qc218xp92uWZXBuPrX1gOHO7nd1fGQ8RjfGfa+Lmfaeqsffet+/bans1dPjJT7hReWgIIbGmrvk3HN/A8laVests0pM1k2/guxmyz3BiSZe27b9233/beEQN+bCgfAQS2fHWexOP6j8TBngd7Lk9SfArPjitxDzZr333rvv22d2IKLYksIdAvAQS2X0SlfqCBwG7hByTrZagTSyywWfvuW/eD2257E/Uedie/hktqCCQngMAmZ1amFPUvTDf07MEuzbjJ7ZbxaT5Ztp6sffete7+2984s0VN2OQlk/GlXTui59nqjUX7mL63XbL8ME6beZ2HCBAV6PGvffever+0xTFygppwXVxDYvNRUNnbWd/eG9j5/PbFZizI+zWaMximP9VxqlNjpCBKYz+Z7lsG37v3a3lEs18my8stZNgJbznpvyesBAwbUC+wmW7eUtulDC+uzbPpsWjeO2yitnOPNNwaffever+3Zcp2j460gLCsiAQS2iLUa1qfZvbLbeBu/3BdG0OSOq5+75edUDlLH4LNv3fu2PecYJs5BUy2SiRF82hUJZyF9OauXV8O283Nyod7BZq1vB+pEoDINE5uv5nOWwerc6t4n+LY9507yKZ60EEhKAIFNSqx8z/+yl8ubbe9PwPNIWX8DlMMHS/QeNgZfQ9S5f9vbTu9h9wnSfsgEAi0QQGBbgFTmR3rewz6wjsFAnQC22TF+SOb5JQ+S+v3aZnnrEjR/89F8zTr41rm1OWt7/uF9/lmQAwRaI1CCT5jWQPBUnwT+qtfdEXv1+XC/N18f1O8jqT8wTJOtzq4/Tz71cjtdgPlovmYdfOvct82t9x+BzbotlKh8BLZEle3h6ou90o7YzSMrJZ3j+S7Or/T1qT+hnt0uBd6b2HwzH2MIvnXu2+bWM9hTw8S7xoAEG4pPAIEtfh17e6hh4t6KuMUefnkuUY9qfsbrYc0D69mdO8zPl5hTm28x9F6trq3OfYJvm+td9ik+ppAWAq0SQGBbJcVz6wmWXtXrAAAgAElEQVRs4TlEbDnN8vzADVUfH9bLwQ97HsEXypaQ+ZhP5lsMIURdh2hz61kwTBxDuyiBDQhsCSo5uItD9OE9wnNJ4WvBrWo/w3O1hmSDAv0pmC/mUyzBt66trVmbCxcO1DDx7uGyIycINCZQoE+Vxg5yNSUCow/zy3iGkq+I5GSbXRY790vPQwz8aIRNbb6YTzEEq2Ora5/g29Yal/03jS9zFQLhCCCw4ViWK6fRB/n7+4p/FsFyOF2Tgf69ALOKzQfzJZYQoo5DtLV6Hh9VLzbIup/6rLkCgbUEEFhaQr8E9EFUPyNp64P7TdfvA9MjGsY0Y8/RO8uzgg5F9osg6ANmu/kQUwhRxyHaWj0TO7XC8z1HfaZcgUA1AQSW9tAKgTF1D9k7sdEfrLuc6IK9m1sSWSfi2wuc+9SIRG5E8bDZbLbHFKxufd+/WhsL+/61mtDnYsKFLcUjgMAWr07T8OhHDTMdc2zDy4kuTluZ6PGOPHzp/Hz1ZK3najbHFkLUbYg21pzL0RqdeVvz29yBgB8BBNaPX+FT6wPIznZ7d0NHtzmy4eVEF6clerpzD1tvMA/vZM3G2HqulVoKUbch2ljfreZLfd/mLgTaJ4DAts+uLCmXy9ElDZ0dMdG5ke9peKvli2/qyRATYVouMMGD9j7z6i3iXMJjS3HMttjeuVbwWp1a3foEa1vWxtIN79SXyPemWwS5l5UAAlvWmm/R757N/j/U9PHt3tn0Vss3nmv5yc4/aDNynxwa12YUtomE2RTTbOHamglRpyHaVq1djX+/TCJboHVajZ3kaucJILCdZ57HEn8jo2c1NHz7ExpeTnTR1knOSZSisw/bmtKfa8j45xqOzXLvYivbbDBbYlnn2qgmrC59175aviHaViP76q+N1aUrWLZTD4YrfgQQWD9+pUjd04vdX87W79K/6fY69u2v/Tk8659F6jnY1oMPa1LWd7bs7FF3duSclWllx7L9YV+wQ9SltSlrW50Ldhj7LySyG3auSEoqOgEEtug1HMg/iawtuPhKw+zGv6/h5UQXp+vpmHuxFWds8/zPv+7cc/r/conesSke3G55WxlWlpUZw8b9/VWq1aHVpW8I0aaS23C6ktwnkd05eVJSQKCeQP0GAvXPcAUC3QT0wWNfyFYo1h/oeq1O2Fk+2Y+UDdQd5ZdFJqkf3sy527Ql4G3LnLu98Xywlu0yUT1OE7eP0yYcB/rOEmq51HAP3qmsfNe+bqhtgk99KpxNyXOyNm5L087VF8uFyZOTAgJrCSCwtIREBCSyH1OCy+sSPfZd5yafVXc58YUjlGLbxKniSTBD70kf39S5p/WnNVUiaTsZvarP6xn6X53Q7qBOqRsjQd5Gz47T/xMVd1MvdR99lo+xz/acBps5fHcA23f/jnP7fj5ARt5ZvKocLlC8vO7IRu+syaAMBBDYMtRyYB8lso8qy317ZbtIn643bOdf0kg1yRMlNoT8EbhJdfdGm3W3TIMjszQwMkv/b/4Z/f+GesLqCs/WmPMcfTOZp400FvT06IdrxGBz7Vw1St9URo9ybqyGPrYd59z48fqyotHdXdUDHqYvOeHCg8rq7yWyj4XLkpzKQACBLUMtB/ZRAmvtxnaU77204b5znJv2Tf/S9lEWnme6+xtBDokI2Iju4wlS2Ej68xoKf956+uq1P7o6QeIWHj3+SOcO0X7ZBx/m3KGHq6Vq9rVfsI2zv6f4VQmt53sAP0NInR8CCGx+6ioqS3vWDfbeWX7uk87dslcYO9+lbLTck5ADAlo15G5swc6FGgp/SnGSxPSuDm+R+aFTnTtBa7aP12Th0aNbMLbpI8/ozgckskm+TjTNjBvFJoDAFrt+U/VOInuXCrC3puvDn7R/+vRL/MvN64Qnf8/zl8OdMrmviU3PauXLQ3rmJtsULILwKU0jOPUM5445vl1jNJvNnSORDdDQ2zWBdHkggMDmoZYitVECa9ORXu5l3uuTnLvVxngDhAOUxy4B8iGL9AjYmtdHmmT/oIT1bo2shh7+bVJc4ss2jPy3EtsPfCRx0p4E/6P//05C2+HueLvmkq7TBBDYThMvUHk9y3bqX57d+0/OvXhxGE/foSa6RZsTZ8JYQC7NCMxV3dzSoG5MWG+V5jxdvy9Js6wyvX7Ygc595rPtCu0dsv1UiWyExxllSpXCRQCBpRl4EZDI1n/Czp/q3O938sp3XWKbmxJgN8YwxpBLLwI367fqt/A2FHyTRPWhnHbo3qXjF886u52hY1sA/i6J7Iu0EAhUE0BgaQ9eBBoKrOX4l4uce+afvfJel3hHLd04OCe9oTAex5/LA6qT53vqxCYv3aT4G3s1WYDwBS0TOvvcpJOhbPfl4ySynrutFIAfLqwjgMDSGNom0HSI2HJcqU0TbtASieWaWRwi7KcP9N0Q2RAovfN4WnXxaE9dPKbNMn6h96yvFaxudtrBuYv0muNkzT5uPczWo8dKZAM1+tYL5sk4CegvhQCBtgk0X1w4WAv992m8dXFbpdkH+nSaa1vsQiayKW0Vcb1eR+Z9S2tYiyauxuu5F5075TStek00CmPrf27XF889QyInr/wS4BMrv3UXg+Vf69OIiVoKEeKknUohf5bI5uFAgD6h5Pimsf+T4hx9bPxAQ8LXLM2xMy2afoFedZyi9bMvtHzALSLbItoyPMYQcRlqOQUf9S1dY4POPmH7/pI2T6+kbg64LZM2/3HHqNmOqJ9blYKbZFkhMF/M7xDzJwY795+aOF7EXmtftW1Dxpf/VKu+j+7rqep7dn7y0RoufrrVBDxXPAJ9fzgWz188CkfgJmXVb/uZtmYj9/DwD4cr1ebR3KMP+kX9Fh2uzLLnZKzvkcDer+9U52uGcNnE1erfhoyPPMa5669ttTVspQdv1RfRABt0t1okz8VGgB5sbDWSA3v0ofEtmfnFvky97vFr3LWTrna/eGHtB9KD227g3jI04PIN7ffujtIH/7CCTa7pC2oW90xc7xTj27QE55JIdmLKgkN1mVddkWTNrE14Opx1sllXWjblI7DZcM9lqT2zhn8t409p5MDLb7zk/veRK93lj/7UTVkyrdcjJ2w40P1uuy43aEDAoV07MOVwhosb1UWQazYsbD3X2zUsjLj2RppMZP+oxCdKZPmGEqRh5icTBDY/dZWppRLXd8iA6xXtLWivMOm1x9wVD/7EffvxS2tv9fr9vBGD3ddGBT7v1KzRYSlOp5YRAhKwCU33KNqwsM0UJtQTuE7fNVtfxnOVMviQRDbgN8x6k7gSFwEENq76iMoaiaq6Lk5n0LmvKuqwzt7hsVcecZff9yN36eSf1N5q+vvVW23gTt8s4FCxlWSt+K0ayhzHcHFT8Elu2FIcmy08RdVv71w7GXZRM9tZcayifWkaoTodpklVQ6VLG/TsyrlK95aq0hfp//mqd/sy8JruTVF8tueZTtl81x1JJj79qwRWO1gQykIAgS1LTSf0U+L6eSX5TqNkz81+1l3250vc9yb9qNHtfq89tt1gt89GKfSK2IyiX/b9PlDZRMKW4miFSkcmNB0hId9LcSfNYBvl+SXJ7H5OwxpP6IvB3R34cmCzi2++1bkJLW8NeqZE9r/7rQceKAQBBLYQ1RjOCQmrtYl/V6xbYb9w2UL3/bu+5c69/0KvAo8ZsoG7druVboQ+C4MHtlVsH2n19oe2zvV+7dCUVhijjN+uiVP7SwR9RbWZjSa2f5Fw/0GvPm0jw7TCySc6d93vW83dVH+URNZO0SUUnAACW/AKTuKexNUWydubt51r01318BXu/D9+rW7yUu1zrf7+8U02cP81NqUehu0v9RY1bU7haa067FSchzQEW9m433ZoSmsTCRPW9yj/wzSCURnybc3K9p+yIeV79S75Bi3bTktozzvbua99s1Ubb5DAvrfVh3kuvwQQ2PzWXRDLe2YG767M/kPxyNpMJ8+c5P7tD19ft9ym9r7P76lMeqo2iPNk+6+e2vNcbW/htCY1/ZV6k8doCHhoh9+TVigsldDeoV7tL1P6Ytf6pCcDMEQi6zke3n/18kS2BBDYbPlnVrqEdUsV/ltFHYbpNB5YHy6753vu03ecVX8j4JXvb7GB+8zmKX3gmZ1jFfdTHB7Q6CJkZQOUjyq+VuWMnYpzgT7zQ28kcYCE7RTF8Sm8d2+nLqbpS8R10rhHAgu9vY/90wOtnsKzqwTWvt4QCkwgjbdgBcZVDNd6eq23yZtDFOvE1SYxffCK96Uurkbzs3NXuf9ZYLsuphRMQG5UfCql/POYrbEwJtXian7YkXOhxfV0DQefJSGLRVzNT7PFbDLbQgbb7emilucn1L2GCWkKecVBgB5sHPXQUSsksD9UgZ9sVOjVf7nSnXnjJ9zirs6uib9q9BD3geEplzlSzX0vvWvctpHnJbj2inx8QgzeaLAU0w5LvyAw/09vrHetS+IGe69svDSwjbff0sqh7WeoB3tN3HCwzpcAPVhfgjlLL3G1jYEbiutXfne2e/9vP9pxcTWEH5y9wl3zpi27TTGYsNyt/O9ULNOpPOar+Wy+NxJXQ35T4NeB52ipTOzian6bjWZryPAdW9/Ub7B9yAgFJ0APtuAVXO2exHWYfreBwV5/3C/NfcF94Tefcde+bPv3Zxs60pOtuDhOP9hAnc2dLmIwYbW3fNP7ce7BwPsMn6uh193soKUchadl84UBbe5/K8X/UA/2MzkihKltEEBg24CW1yQSWBuS0inS68PdU//oPnHdx4MtvwnB5r9HD3Z/M7yDE2Js6YjtE1CUoWMbCn5OsdUlKRdqIOvpQD1Y6w3uZUce5TA8Idu/Ecj2wzR38M8P9QXhPgnsYX09wL38E0Bg81+HLXkgcbXZF/9S/bC9b7Uh4RhD6rOLGzltJ/SMt6ih6o1TnNncqGzfa0tk8zTZPE0ZvZkgs5C91zy8c+0PTch3sn33Yu0bzUYS2Zw1tP4Acr+aAAJb8PYgYbU6vkSx13BUJ5bg+KJNfZ1sXwba8p5xmlVrvdohKe5o1JcN/d1bIfustzpd9tXOCO4vbeX+xVo+82iA5So2I/fkgEOsrdqfxnOhNto4XsvKb7mzLwu3lMDO7esB7uWbAAKb7/rr13oJ7OV66GPVD37z1gvcOfed32/aGB6wHZ++tXVK2yq26qANIZvgbqU/lxENZuC2mk+I5+wIuVmywQS11SHgZuWGmjls61xt2UuRwnfkU4h1sn3PKB4ngX25SNjwpTcBfQUmFJWAxPUf5Vsvcf3qTV9yFzzY8pZumaO5fPEq98LLg913JG6pHBDQiocmZN1iJmHbWAI3Su8st5Sg2JaMIxXT+iuyjvMbiraF4ev6wJ+jUcUlAQW+z1eE5m+LwTaRcAUTWPMphMBee3VfS3YYHm6xieX1MXqwea25fuyWuO6mRyZXP2bLcC585OJ+UsZ7O5Wj7kK4a3Oyu6P+nIZJAIdKgIdKDIfomibodgvwQF0b2DORqEs/d+lnE1BbemrzuZbq2lJdW6Q8FiqPhfp9YaCJR8q+LtiuTZ8MMPRt2x++q6A6caN8C7Gt4qxZzXZ32l492P7meNdVHRfyQyCt7975IVBASyWu+nR2T1S7Zj3XPIur+XLGrFXuvOVD3HlbrnSDYjq3eqGMs2g93O7QSBirr/V1v688erIP8d9T9qfvKbA2dG57C6cRbEm0vf+2JVQ2SjBM9g7usXelfl6kn613P1vxFcU0NN58+6Py9h2Kv/V3zn34TGVUF/j8rUNSrAv2QUwoHoHr5JKN23UHe+eap2Hhvqrjgvkr3UkvD3QPLU15U4q+jCjCvUkBhnTtVJzQG/ePENyDFW0x2aGKOyraULxNNLPxNov2s12ze/aMPWtpLG3IYL6Zj77h5t83yyFA5s2y5noMBBgijqEWAtqg3ut3ld3nKlnmYbZwu+5nspSnXWNjSmc7A37C0yDrvX5D3+FCHjm3n77v7+bZI64cGO/p3rrkdtTdORJa317sPE0WHmnfCnqFvTVE3GukqfYBfs83AXqw+a6/ddZLWDdRvF0X1omrrXNN+zScLPHZQQEnTx/s7l9qLzsJLRN4PsDWgHZYeihxtZ7nCYq+4moALA/LK1Rv1nw0X33Dffc0ysEGvwkFJoDAFqByJay7yg07gOyYiju2Q1Osm0iERP6b5avcoa+sdL/a/O1u2RB7aUfol8DzAQau9g/00nOUrD1OryLrOnf9etH8AcvL8rS8Q4QQvj5wbyNLdml0kWvFIYDA5rwuJa42UcKGmda9c7W9hW37wzKFWzYZ46448jPuyQmnlsnt9nyd6rkN5RF6/z3KcyjXLLde5pFqvmls5GF5Wt4herLmq/nsE+5/oFHqvRtd5FpxCCCw+a/LL8uFXrMRbeP+KUum5d+zhB4s3WCIu32Xt7mvjznN3biICZoN8S3Tn7zvzk17eYpNxTA7jTgNca3kb3lbGSGCr8+33qWZz91TzavDAbUX+L1YBBDYHNeneq/2SfeVahdsrWsMp+JkiXXaBhu7k2asdme8Mtj9YXEgMcjSoZBlz1o30NF+rjsF2BDfJjSFHBZu5o2VYWX5hhA+P9NrWbpZdLD+hgO8EPd1jvRpEQjQ8tIyjXxbIPBFPbOuq2aTmvK+1rUFn1t+5Jqlq9zxr61y73t5kPvtQiZCdYOb5fknv4sE2nd42IZtQ0xoarUlWFm+Q8Xms/nuE6ZOqU1tlfH+2ov8XhwCnn9txQGRN096vvmeV7H7udnPujNv9F17kTcKrdl73bIu956ZK90RLw10P5m/kZsf4PVhayVH9NSGuzu3+3fUa/Q8gnRnT5ExJFlM7QlRpq/v0xq+tvlxRK0EUwITQGADA+1gdj9TWeuGl867+UtucZftu0doRuCeFWvcx+csdyM1i/bLszdwD5Rhec/Wf63NGH7j3KlPObfv59WDte2PPMJYT4G1EfsJHuW3m9TK9H1b4Ov7K9MbWb+hvixv3OgG1/JPgJkgOaxD/UGeLLPPqJhum0n877Trc+hJdib/+4LVzuIxQwa7k7WP8PHDBrhdhnjOrs3OnV4lP7tiiFs46gx34BEXan/k7Xtb9Vq759r1ZOO79MVWUgVYJZQYtZVpZTfsRLaYm6/vzdnbALZt/0EoGAEENmcVKnHdRCZfUzF78sxJhd5MIu3quWPFKneHncipeMKGg9zxOh7viE1WuQM2CrCVYNrGV+X/yLJB7u7FG7hbdfrQzcu1RvWlX7inDvgnt7sdQlAdZs/xs2qE5/i67S2cVbCyfQTW1/fm7OnBZtUmUi4XgU0ZcArZP6Y819Xbv/3h6ykUUc4sb17eJXFSL1bHw+0+SGKro+kOHjrIHaCTcXYaEmhjhUBon1sx2D2iE3geWLra3aoj7CavNuHr3QO3tnHlR9Z9F1tb8pzX/SwY5vnFI8u9i3zL9vW9OXuT/ql+FUPqGAkgsDHWShOb1Hs9WrcmVm5f9fAV7hcvXNvkaS77EDDBmtx9Ss5aQTHBPWyjgW5vvfXeVTvn7Tx4gNu+Q0PKL2nId8rKNe4ZvWKfpBUy92rS1uTVWuPZT7C28S61kQ8e+NH1T86b30+qfm4PrZz2089zzW7bqTi+p/g0y7u/675l+/renD2fw/3VXU7vU7E5qTiJq528cWvF3IXLFrrz//i1jlt/+sGnuFGjtnKX/e5HHS87ywK7BXexeomL11ux+YBB7iCt/pkweJDbVhNoxiiOGtTlthw00I3QXKBhA1e5TXQGrM1E21DXBqxZO7zaJY3SfCtnq0kX62zYRV0buPnS8ddVxpzVA90MdZa1+6N7YeVq96B1qNe033u2NnLSnqe4TTfqGSte8KYfRt/9hytHzvlZ0V5q37J9fW/O3rNS2sNBqvQJILDpM/YuQeJqu40/r7iuvr5/17c6vlvTqQe/17314MO7/fnUSZ8sncjWVuQ8CebNNnFbQ8u9Q/Uw6oBuVjtP2Ln7kT8/cI+75gE7TbASrEdYLaCeQ7BVOduPtqOXtZV/eccFNXf4NSICVV/bIrIKU7wJsEzHG2G6GUhcresxU9EOCOsOtub13PsvrPzasf+3GrXOhG7BMOEg9E2gWlztSev9dzpYW7E20x2Gb+ZXvB3f5hPssPSsgm/Zvr43Zx/2W1VWfCm3jgACW4ckugu2rqLXPjSX/fmSTIy0YeEpL6zfjQaR7bsaasXV2GU1tL6uzWzuuaXRUs81Nov6f3fcN1WPu75l+/renD1LdDyqNeakCGzEtaPe654yb1i1iY+98oj73qTs3n8isq01mJjE1Sy2NmNtx43asjUHmj21yLMH67nPRTOzWrruW7av783ZF2MBdkuVUK6HENi469v2Gu4VLr8vO3GtGILI1tZK799jE9eKdd1tZ7TnbgnzPT8yZvfNLtW7vmX7+t6cPRv+p1rx2WXu+deSneFFL1m9VxuLO7Laz0mvPeYunfyTKFxHZBtXQ6ziatZa21m8ueeeBp77VLhXZIjnSp/G5Pu5amVa2T7B1/exY5uV7jlu3yxbrmdNAIHNugaal2/TdXeovn3Fg3GIa8UmRLZ35cUsrhVLnxzoqRKvec7HsQnTLzRv9KndsTLbX+201ixf37cd18y9LIg0s4XrAQkgsAFhBs7q4ur8Xn7jJfftxy8NXIR/dojsWoZ5EFez9I/LJ/lV+hRPgbXSeyY0+xmSMHWIMn19Hz++kdFLBwwYEOCA3UZZcy1rAghs1jXQoHwND2+hy2+pvvW/j1zZ4Mk4LpVdZPMirtZapgz37MY9K4Gd4/mxYZtJPe2ZR5Kmb2V5bmDV7bP57hMmrl0LXZPFBT5ZkjZuAh1s5XGDiMy6o2rtufzRn9Zeiur3sopsnsTVGswDIwIcafhcgDk5j2pzDu35nHqwMqws3xDC5111Jm99WLc7W/0truSdAAIbZw3+TbVZ1z1+Tcd3bWoHS9lENm/ianU6Wdv9vbCP7brpEZ7w7AVXir5fP6xIceMJy9vKCBF8fT5e8xWH1R5t1G2Y7+KhEN6RR0oEENiUwLabrYaHbaufd1anv3bS1e1m1/F0ZRHZPIprpTE8vq02UPYJd0tgfYeJrXwbtr1LG0+kIbKWp+XtOzRsdpqv5rNPOOTgZqmZQdyMTAGuI7DxVeLPZdK6epk294XcnZhTdJHNs7hac3946wBDpn/RyQYhgk1qvk1CGHK42PKyPD0nTK9zL4SvBx/WjNY7mt3gev4JILAR1aF6r6fJnLdXm3TT5BsisrB1U4oqsnkXV6vBm7YKMGn1D3qX67s3b6U5WS/zZsUQE58sD8srRM/V7DMfzVffcKitumsYzmt4lYuFIIDARlKNPcfR/WetOb99Op8Ca34UTWSLIK5WL48OWeUeOazXDpy1za7/32fokXs9h5prS7HJSL/XxecVk2xGYc9aGksbYkJTtV3mo/nqEz50qnMjN2+Ww7KeTWWa3ed6jgkgsPFU3j/KlJHV5tgJKDfPuDMeC9uwpCgiWxRxrVThHycEmFx0w1LnlnruTVzbpqzn+YDirxXvUzThtCFfe6dqQmrRfrZrds+esWctTaheq7LqDuab+egbTug1paI6NxurP1zrYJN8nfC1piPp9aUh0DuEjpibWiEIbGpoW89YjdE+7er2Hb5jyh9azyTiJ/MuskUTV2sq/7dNAOGwnt0dKX2E2JyiaYomnDbk+2u9U71K/1u0n+2a3bNnPOcfKYfGwXzz7b1azsef1Dh/5/5D4vpUs5t5vW49coW0aiVXWFL668gVgxiMfb+MGF1ryO1TiyGw5ldeRbaI4mr1cd/QFe7OYzzPhrWMfqnP0WmBh4pr/xCy+N18Mt98w6c+pr/suj9ty9UyP8c3+0jTe54oEalXbZiFwLYBLWQSfduzOrisNs/5S99w17z029rLuf49byJbVHGtNKLf7BRgNrFldp3nDkcxtupQPp16RjPvzlYvL8AwQrPss7muz7OR8sv33KJsjE+hVAQ2BagJszxBz9d1Je6b9qeE2eTj8byIbNHF1VrL98Ys9t90wjJ6RAJ7vefmFTE1X/PFfPINtrnEMcc3ysV6rz9odCPP13omawXY5ivPFHrbjsBmX5efaGTC/S/d2+hyIa7FLrJlENdKQ7p67w3DtKlr1Bm71/MovDCW+OViPpgvIcLfani4cfiienkBFLxx5hleHS2/Qry1ztCFsEUjsGF5Jsqt5xvfuxslKrLAmr+ximyZxNXq4Us7LnCv79Fr8nqj5tjatUuXOPdEjjswZrv5ECIcdqBzH/hIo5ys9xrfsViNLE1+LfQ87uQWRJYCgc22QuzTqG6dg71/vXXWPdla1oHSYxPZsolrpYov3z/gKpFvaBOLp3M4XGw2m+2hwmc+2zCnrq6uLxex99ozczjAjhwNseX2IgKbbdU1XCs26dXHsrWqg6XHIrJlFVerauvFLj2u1+mIfi3gQg2x5qkna7aazaHCu45t2HvtWtP15sCBA78XqpiY8tGXhoDf0mLyzM8WBNaPn2/qho3yyRmP++abq/RZi2yZxbXSUP783oPDthnrDebhnazZGLLnahTPOruOpXquqxa+uXB/CZEW8RLKQgCBzbamG050mDzzyWytyqD0rEQWcV1b2ddvpR7cFz4TtubtfWbMs4vNtlDvXCvkjGHNzGH1XBcvWbVkvxEjRtjeU4QSEUBgs63shj3YSbMLt7lLS5Q7LbKI6/pq6W5zZ5/r3E47tFRXLT9kM3K/o2kGMW1GYbaYTaFmC1dgGDtjWBXUc+1aumLpaZtuuGn5vjW33EiK+yACm23d1q30X7l6pbvnddsDrpyhUyKLuPZuX9bmVm6h2cQXXRy+4dma0nNXOHejphyE3rs4ibVWttlgtoRY51pbtrGr2rVJ2uqWLl/6g2EbDbONHQklJIDAtljpmiWXxtTIuh7stHkvtGhRcR9LW2QR18Ztp7vtnayTX2fe380AABJySURBVM6rf4fYOEXCq7b14FcktnfrTynUUXetmGBlWZlWdojtDxuVacyMXU8wcV22fNm8i4defFajx7lWDgIIbAv1LHHdSY9t38Kj3o+8PO9F7zyKkEFaIou4Nm8d69re174psTix+YM+d2wbgh9r2Pgcid0t2uRiToofQZa3lWFlWZlpbYFgrIxZT+gW1xXLFrw47cUx5w84v26UygcfafNFIMXWnS8Q/Vj7Kd1vuKSmn3SJb78y/+XEaYqaILTIIq59t5Rebe/bl4R/H1tdvIndFVo2+Tnpz4/1p2WzeUOIreVheVmelreVkZawmj/23tVY9QQT1yUrlix8edHL2+2xxx4aiyaUmUCAQyFLgW9HeZnGH0vdF5yZC14rBdBWnTSRrRbGnSfs3P27XU8SENf+afVqexM0aHP5T5078pj+E/o+cbeGji1a2EXDuTsrjlW0M1lGSCSHqQc6VG9TNuiZdG9DvksHOLdI/8/Xn9AcPfea7k1RfNaeCbQbUyt+GSNjpdD9znXF0q558+cduuuYXRe2kpxnik0AgW2tfg/XY/ZnHDrU8Z+5eGboMnKfn6/IIq6tNYG6tnfE0TopR6eZn3JaaxmEeMoEslsk+wqV+xkvKTU2xkihR1zd7Ddmf2/C2AmFXQag12V2NmEX63n7ap/r79X1oFpLVrqnbEf0BZ3wes6iNHS8E5anW0a7w8WIa+v10rDt2cSdq65oPZOyPGlMeiY1VcR1zoI5r04YM+GLBUfwfsS19RpGYFtjdU1K+4fWfVWfu3RuaxaV8KmkIou4JmskTduebVqPyK6HaSx6NvLvfue6fImbOXfGiofmPjTBDXB1KwOS1UL0T18XvYURGYjAtlYZ57T2mP9T87TRP6E5gVZFFnFtzrDZnT7bngmKDYmWPRiDKnHVOlc3e97sxVNnPr/DGXuckcY8jaiIq6OxKCqDIjcGgW2hglI847BuZvL8FW+2YFG5H2kksjuMm7AOiv1sk6EqYcoLUxJPiioj4X7bng2J3nVHurOLYwVvs4XN9+phYYnrjDdmrJo2e9pBJxx4QppzlWOlgl39EEBg+wGU8u1tavNfuJLJh7VMGv1eK7LDNxu+7rHqnxHXRvQaX2up7dmknptvTW+dbGPTsr1q61zN56oJTd3DwvNmLnx+xvPjjtv/uMnZGtiZ0jXBCb1IiLpuFmvC9DzuR6DujLATj3inU0P2y7UkqZcuWewWvLnAVQtqtet2z57522M0vEnol4BGavp9pvsBW5Zy3e+d++o/O3fBRa2lyetTtkNT1SYSq7tW2/aHeuc6841Xpr4y9oSjTwh4iGzckNQ+2DQjYRUhsAmBBX687oywvffYN3AR5c3OhHefPfcrL4C0PTfh2e8gbXCvibPPvZh2aZ3N34aEbW/h6u0P13Tv0ORmzZs1Y+K2E7fdabudEJzO1kruSqPLn22VTcy2eEqHgCcBE6A/PRD+qDtPs7yS25Fz5lOVuFp+NmN44dKFb+y4zY7b0pvzIlyaxPRgs63qLWqLn/TUYwwR10Lp43eb0NTXEPGL01/oIzW3qgl0DxG/rQ0mdoLMxd937p0n6Rg4DRnfeHsbmUSQ5F3Hrj0sveY814pla9Z0LVy2YNnYAZszVBpBbeXChBZfuuTCl9wZqXet+prsNMa2Poz9t9FuxsrXc+dLFgbXLsVpZAOTnBpRaXxtzOAt3Wtfnt34ZpKr//tz534gwb334SSpsnv2sAOd+8xn1y2/aWKILcEZrS8hHdlwpokNXM4ZAYaIs62wKbXFbzp409pL/N6AQK242oSmSqj+ubJ3cYMsuFRDIFjbs3Wif35o7eYUxx8ZL2ezzTaNMFt71rY2MXaWrg9HXJvQ4XJTAghsUzQduTG/tpQRQzarvcTvNQRqxdV6qdVDwfazXasERLa1JhS87Zlo3XKnc7ff4tynPtaaEZ14ymwxm8y2voXVrLGt1cZKXEszW7gTVVCWMhDYbGt6o9riNx86svYSv1cRaCSujU7WqV0ni8j234xSa3v2TvPSy52bpY7gz3/i3IfWH0zev1WBnrAyrWyzwWxp8p61qrTV+vlGxVFMaApUByXMBoHNttLrdnLaYmjdvKdsLYyo9FbFtWIyIpus8lJvezYZ6sNnOnelthucp47hjdc7Z+tM0xhGtjwtbyvDyrIyrWyzoY+gmcJdK1ev/PGyZct2lLCepMii9D54catvAswi7ptP2ne3rC1g1DA7BJNQSyCpuFbSm8hWp233PNlae4r4e0fb3sjNNev4vWujwVykHcyemezcVA3tT5vm3CvTdcarzkaerdOl5mjS3zy9TVnQs43ocL1G2XyE+pb68xmtv5exY53bdpxz48c7N1FbZO66u86QTT6XQZtILF68bPEZwzcZ/vsi1i8+dZ4AAtt55tUlLq0tfutNtq69VPrf2xXXCjhEtrUmlGnbM0E8UPuuWMwgSFyXL1q4aK8RI0ZI3QkQCEOAIeIwHNvNpe4d7NbD9W2csI6Ar7hWMmK4uP9GVdK2p+0jui4ZNHDQJohr/22EJ5IRQGCT8Qr9dN2iw21HbBe6jNzmF0pcKwAQ2b6bQgnbnp0NucegAYM+p3etNqmJAIGgBBDYoDgTZ/ZSbYrtNt+h9lIpfw8trhWIiGzz5lSitrdcFI6RqG6u+ExzItyBgB8BBNaPn2/qf1UGvTYMH7/5BN88c58+LXGtgEFkGzeRErQ9+1vTCQVuqIT1j40pcBUC4QggsOFYJs6pZ1jqw9UJBw8a7A7fMpuJHokdSCFB2uJaMRmR7V151uas7RU4LJZvx+lv7hyW3hS4liNzDYHNvkJ+JRN67RKz9+g9srcqAws6Ja4V1xDZ9ZVc8DZnPdfT6LVm8Edd8iIR2IwbgP7o7Y//G9Vm7L71nhlb1fniOy2uFQ8R2bUkCt7m/kt/Zzd3vlVTYtkJILBxtIBrqs3Yc8w+cVjVISuyEteKe4iscwVuczY7+N871JQpBgK9CCCwcTSIZ6vN2HubfeOwqgNWZC2uFRfLLrIFbnPXq/daN1u/A02bIiDgENg2GoHOca3b4rCNbNYl6ZnstO5k8BHa8P/4rQ73yTIXaWMR1wqssoqstTVrczkP1lO9T/FCxdMVbRhomP62Tsu5X5ifYwIIbBuVpz/a1yWydbswtZFVdZILqn85ZPvDPLOLO3ls4lqhVUaRzVlbqwjpD1RnX1T8K8WdFDfS3+Vhil9R/LXiJEWbOUyAQGYEENj20a9oP2nDlHdVX83Zh15Dh5pdjFVcK/aWTWRz0tZsMuCPFe2UGxPSzyp+W/EqxamKq5q1N65DICsCCGyb5PUH3WuDiDazqU6mo0PWh0PHvy1AlvFlEbu4VoiVSWQjb2vWY71DcXf9zX1Skfep8f1Zt2yRRv5KpTmlcrblVpDBg/rgsB7xq5Wi7Z3Y6du/OwNL0isyL+JaIVAGkbU2FtH718rw72Wqg/+neKziFvrbOFax10TA9FopOadBwIRVcXwKHZM0zA2WJwIbDGWQjJ6rzuXYiW8PkmkMmeRNXCvMii6ykbSxyvDvDvoAtuHfTyt+X/EOxQUxtF9sSE6gIqr6/9+U+lOqy9IdBYjAJm83aaaYXp35MTsXQ2DzKq5lENkI2phNRDpRH742/PtKmn9c5N1xAoeoRFsdMVZ1+x8dLz2CAhHYCCqhyoQbqs3ZafQu7oQxR8VlYUJr8i6uFXeL2JO1tmVtLMNgPdeT9OF7a4Y2UHR6BMYr63sV/z69IuLOGYGNq36eqjXn3bu9p/ZSbn4virhWgBdNZCNoW5dKXO/MTYPG0KQE7NSSU1THdjxgKQMCG1e1r5vkVDHrxN3zKbBFE9dKfRRJZDNuWzah6Zy4/vywJhQBvXcdpLx+KnGdHSrPPOaDwMZVa4tqzRm/xQT3oQmn1l6O+veiimsFehFE1tqUta0Mw9368F2SYfkUnS6BEarfx9ItIv7cEdiI6kgNco3MqXsfdereZ0RkZd+mFF1cK97nXWRTalPWK71J8UjFbRRHK26r+F7n1tTOIP1h3y2Ju3kmoM+yuXm2P5TtCGwokuHyqds79ZR9Tnc7b2zzBeIOZRHXSi3kVWStLVmbChhsstI3FW27wncqWu/0NcU5iq8q3jBgwEDrLo9QfKan3MkByycrCERJAIGNrFr0YbRQJs2oNevj+51Zeymq38smrhX4eRTZwG3JltkcqnZ7jmKf2xXq/gLF3fT8cEUENqq/YIxJgwACmwZV/zxt8/Je4QMHfLj2UjS/l1VcKxWQN5EN2Jas5/ouieaDSRqjnn9T0V6HECBQaAIIbITVqw8f6xXY/qvrwnYjt3df2OfT0VlbdnGtVEheRNbakLUlz2DLLmxJ2T+orfY6pMIzX5JDoFAEENh4q/PjtaZ99KCP1V7K9HfEtTf+PIhsi23IJivdo/hPikcr2gSAUYqbKtp7Vot7Kv5nbwL8BgEIVBNAYONtDy/KtF7vtPYeu6/79O5xiCzi2rjhxCyy1nasDfURbMj324ojJZ5HKF6seKfii4qvKy5SLO2mAX1w4xYEGhJAYBtiyf6iPsjsHVXdRJCPH/rJzI1DXPuuglhFtp+2Y68l3qp290VFm2hHgAAEPAkgsJ4AU05e113dd9sD3Of2zk5kEdfWajw2kbU2Y22nSbCe6zskrPc3uc9lCECgDQIIbBvQOpjkEZW1tLa8T73VjsrsfEBckzGPSWT7aTOXSVz/nMw7noYABPojgMD2RyjD+z3DxLaAv1ewE1AuPOTc2sup/z5nzqx1ZUx5YYozASH0TaBWZKsZ9p0y3F1rK32cmmMTmr4arjRyggAEKgQGgCJuAto0e5wsfCluK7EuxwTu0xe5w3JsP6ZDIFoCG0RrGYZVCLysH76r+BfFhxRtl6fKTE77glRZsG89EQs2KjFM0Q76/GhP3HjtLf7th4ANx5+veL3iHMUVisZ4sOIQRdvqb1fFoxTtKK6DFO3UkDwHa1cECEAgBQL0YFOAGluWPUdH2fZ0IxXHKpownKJ4iGIsAlFZe/mvsulhxcpJK5vp550VzXYLbyqaEK5UtMk5Jnq+/piQHq6eXKIdiXq42hrR4xT3ULRZRHkT3XPltzEnQAACgQkgsIGB5ik7CYSNYLxf8b8VrZdmwYTuXkU77cR6zDMVTdCsp1zdXio9Z7tmIm3/W+/Zfq6MjFT+NyG0fE3I7GdLW0mvH7vDqp53zpXfE/8vf6x8+yJhJ7hsqLiRognwREU7RKHyhcJssUk9P1a0HtyzvmUrj+7QY8PW+tF207fY6pcYs8kE3pjfqWhLtGy5jHEdqmh+mT/2BcPODbY6sXXSxtM4m7/m636KOyoaC/t9vqKFys/2vKW1004s/Qvy/bG1j/AvBCAQkgACG5JmjvPqEQZ91g6oDDXn2JvGpstHa+821LtSfprQpB56ytxEBdkuSCZsFuxLiH3BMFE0m5YpLpRN1isnQAACEIAABCAAAQhAAAIQgAAEIACBlAloxGIjxbf2jFykXBrZx06AIeLYawj7IACBtglI6Gw43t5d2zv+dfso6/rmurZFT3y0+l47hZmgKtTOK2gnK9JAAAIQgAAE4iUgwdtK8RrFLsVKWKQf5imurrq2ZnXX6vn63d7NEyAQlAA92KA4yQwCEIiBgATTjtrbQbFycIFNarO1zTYr3nqyJqi2BGwbxU26urpeGjhw4A/VC+11gpXuESAAAQhAAAIQgAAEIAABCEAAAhCAAAQgAAEIQAACEIAABCAAAQhAAAIQgAAEIAABCEAAAhCAAAQgAAEIQAACEIAABCAAAQhAAAIQgAAEIAABCEAAAhCAAAQgEDcBbbaxoeIZinbcISEDAuzklAF0ioQABCCQNgEJqx2RaGcFL9cOVUvSLo/8IQABCEAAAhCAAAQgAAEIQAACEIAABCAAAQhAAAIQgAAEIAABCEAAAhCAAAQgAAEIQAACEIAABCAAAQhAAAIQgAAEIAABCEAAAhCAAAQgAAEIQAACEIAABCAAAQhAAAIQgAAEIAABCEAAAhCAAAQgAAEIQAACEIAABCAAAQhAAAIQgAAEIAABCEAAAhCAAAQgAAEIQAACEIAABCAAAQhAAAIQgAAEIAABCEAAAhCAAAQgAAEIQAACEIAABCAAAQhAAAIQgAAEIAABCEAAAhCAAAQgAAEIQAACEIAABCAAAQhAAAIQgAAEIAABCEAAAhCAAAQgAAEIQAACEIAABCAAAQhAAAIQgAAEIAABCEAAAhCAAAQgAAEIQAACEIAABCAAAQhAAAIQgAAEIAABCOSXwP8HSI8Ndq4n2OkAAAAASUVORK5CYII=;" vertex="1" parent="ULsuLPqDYhj-CrE27u8X-11">
          <mxGeometry x="640" y="-50" width="200" height="200" as="geometry" />
        </mxCell>
        <mxCell id="ULsuLPqDYhj-CrE27u8X-26" value="" style="ellipse;whiteSpace=wrap;html=1;strokeColor=none;" vertex="1" parent="ULsuLPqDYhj-CrE27u8X-11">
          <mxGeometry x="-111" y="71" width="60" height="60" as="geometry" />
        </mxCell>
        <mxCell id="ULsuLPqDYhj-CrE27u8X-28" value="" style="ellipse;whiteSpace=wrap;html=1;strokeColor=none;" vertex="1" parent="ULsuLPqDYhj-CrE27u8X-11">
          <mxGeometry x="-66" y="40" width="60" height="60" as="geometry" />
        </mxCell>
        <mxCell id="ULsuLPqDYhj-CrE27u8X-29" value="" style="ellipse;whiteSpace=wrap;html=1;strokeColor=none;" vertex="1" parent="ULsuLPqDYhj-CrE27u8X-11">
          <mxGeometry x="-22" y="72" width="60" height="60" as="geometry" />
        </mxCell>
        <mxCell id="ULsuLPqDYhj-CrE27u8X-30" value="" style="ellipse;whiteSpace=wrap;html=1;strokeColor=none;" vertex="1" parent="ULsuLPqDYhj-CrE27u8X-11">
          <mxGeometry x="-38" y="122" width="60" height="60" as="geometry" />
        </mxCell>
        <mxCell id="ULsuLPqDYhj-CrE27u8X-31" value="" style="ellipse;whiteSpace=wrap;html=1;strokeColor=none;" vertex="1" parent="ULsuLPqDYhj-CrE27u8X-11">
          <mxGeometry x="-94" y="122" width="60" height="60" as="geometry" />
        </mxCell>
        <mxCell id="ULsuLPqDYhj-CrE27u8X-27" value="" style="ellipse;whiteSpace=wrap;html=1;fillColor=#3399FF;strokeColor=none;" vertex="1" parent="ULsuLPqDYhj-CrE27u8X-11">
          <mxGeometry x="-67" y="87" width="60" height="60" as="geometry" />
        </mxCell>
        <mxCell id="ULsuLPqDYhj-CrE27u8X-32" value="" style="shape=flexArrow;endArrow=classic;startArrow=classic;html=1;rounded=0;fillColor=default;strokeColor=none;shadow=0;endWidth=11.35632183908046;endSize=8.033333333333333;startWidth=11.35632183908046;startSize=8.656666666666666;width=14.666666666666666;" edge="1" parent="ULsuLPqDYhj-CrE27u8X-11">
          <mxGeometry width="100" height="100" relative="1" as="geometry">
            <mxPoint x="-36.17" y="293.5" as="sourcePoint" />
            <mxPoint x="-36.17" y="166.5" as="targetPoint" />
          </mxGeometry>
        </mxCell>
        <mxCell id="ULsuLPqDYhj-CrE27u8X-34" value="" style="verticalLabelPosition=bottom;verticalAlign=top;html=1;shape=mxgraph.basic.polygon;polyCoords=[[0.39,0.15],[0.64,0.26],[0.83,0.39],[1,0.74],[0.56,0.68],[0.34,0.58],[0.17,0.41],[0.05,0.15]];polyline=0;strokeColor=none;" vertex="1" parent="ULsuLPqDYhj-CrE27u8X-11">
          <mxGeometry x="-123" y="206" width="79" height="68" as="geometry" />
        </mxCell>
        <mxCell id="ULsuLPqDYhj-CrE27u8X-37" value="Untitled Layer" parent="0" />
        <mxCell id="ULsuLPqDYhj-CrE27u8X-38" value="&lt;h6&gt;&lt;font style=&quot;color: rgb(255, 255, 255); line-height: 100%; font-size: 80px;&quot; data-font-src=&quot;https://fonts.googleapis.com/css?family=Gidole&quot; face=&quot;Gidole&quot;&gt;30&lt;/font&gt;&lt;/h6&gt;" style="text;html=1;align=center;verticalAlign=middle;whiteSpace=wrap;rounded=0;fontSize=102;" vertex="1" parent="ULsuLPqDYhj-CrE27u8X-37">
          <mxGeometry x="-3" y="203" width="80" height="60" as="geometry" />
        </mxCell>
      </root>
    </mxGraphModel>
  </diagram>
</mxfile>
